<svg width="470" height="184" viewBox="0 0 470 184" fill="none" xmlns="http://www.w3.org/2000/svg">
<path d="M330.802 111.66H333.222C334.742 111.66 335.862 111.973 336.582 112.6C337.395 113.293 337.802 114.247 337.802 115.46C337.802 116.5 337.449 117.387 336.742 118.12C336.049 118.84 334.995 119.2 333.582 119.2H332.282V125H330.802V111.66ZM332.282 113.06V117.8H333.502C334.382 117.8 335.069 117.587 335.562 117.16C336.069 116.733 336.322 116.14 336.322 115.38C336.322 113.833 335.342 113.06 333.382 113.06H332.282ZM341.403 111.66V117.08H348.243V111.66H349.723V125H348.243V118.48H341.403V125H339.923V111.66H341.403ZM364.305 123.26C362.972 124.58 361.332 125.24 359.385 125.24C357.439 125.24 355.792 124.58 354.445 123.26C353.112 121.94 352.445 120.3 352.445 118.34C352.445 116.367 353.119 114.727 354.465 113.42C355.812 112.1 357.452 111.44 359.385 111.44C361.319 111.44 362.959 112.1 364.305 113.42C365.652 114.727 366.325 116.367 366.325 118.34C366.325 120.3 365.652 121.94 364.305 123.26ZM363.225 114.44C362.172 113.373 360.892 112.84 359.385 112.84C357.879 112.84 356.599 113.373 355.545 114.44C354.492 115.507 353.965 116.807 353.965 118.34C353.965 119.873 354.492 121.173 355.545 122.24C356.599 123.307 357.879 123.84 359.385 123.84C360.892 123.84 362.172 123.307 363.225 122.24C364.279 121.173 364.805 119.873 364.805 118.34C364.805 116.807 364.279 115.507 363.225 114.44ZM374.861 113.06H371.621V125H370.141V113.06H366.901V111.66H374.861V113.06ZM387.294 123.26C385.96 124.58 384.32 125.24 382.374 125.24C380.427 125.24 378.78 124.58 377.434 123.26C376.1 121.94 375.434 120.3 375.434 118.34C375.434 116.367 376.107 114.727 377.454 113.42C378.8 112.1 380.44 111.44 382.374 111.44C384.307 111.44 385.947 112.1 387.294 113.42C388.64 114.727 389.314 116.367 389.314 118.34C389.314 120.3 388.64 121.94 387.294 123.26ZM386.214 114.44C385.16 113.373 383.88 112.84 382.374 112.84C380.867 112.84 379.587 113.373 378.534 114.44C377.48 115.507 376.954 116.807 376.954 118.34C376.954 119.873 377.48 121.173 378.534 122.24C379.587 123.307 380.867 123.84 382.374 123.84C383.88 123.84 385.16 123.307 386.214 122.24C387.267 121.173 387.794 119.873 387.794 118.34C387.794 116.807 387.267 115.507 386.214 114.44ZM398.913 119.7V118.3H404.473V118.62C404.473 120.273 404.046 121.68 403.193 122.84C402.006 124.44 400.353 125.24 398.233 125.24C396.259 125.24 394.613 124.58 393.293 123.26C391.973 121.927 391.313 120.287 391.313 118.34C391.313 116.393 391.973 114.76 393.293 113.44C394.626 112.107 396.286 111.44 398.273 111.44C399.846 111.44 401.206 111.88 402.353 112.76C402.939 113.213 403.453 113.74 403.893 114.34L402.793 115.34C402.406 114.793 401.986 114.333 401.533 113.96C400.613 113.213 399.533 112.84 398.293 112.84C396.706 112.84 395.399 113.367 394.373 114.42C393.346 115.473 392.833 116.787 392.833 118.36C392.833 119.507 393.113 120.513 393.673 121.38C394.233 122.233 394.913 122.86 395.713 123.26C396.526 123.647 397.373 123.84 398.253 123.84C399.133 123.84 399.933 123.64 400.653 123.24C401.386 122.827 401.946 122.28 402.333 121.6C402.666 121.027 402.846 120.393 402.873 119.7H398.913ZM407.189 111.66H409.329C410.769 111.66 411.849 111.907 412.569 112.4C413.542 113.053 414.029 114.04 414.029 115.36C414.029 116.387 413.715 117.24 413.089 117.92C412.475 118.6 411.669 118.973 410.669 119.04L414.909 125H413.109L409.049 119.16H408.669V125H407.189V111.66ZM408.669 113.06V117.84H409.609C410.529 117.84 411.249 117.627 411.769 117.2C412.289 116.773 412.549 116.173 412.549 115.4C412.549 114.493 412.195 113.84 411.489 113.44C411.035 113.187 410.395 113.06 409.569 113.06H408.669ZM426.148 125L424.588 121.24H418.908L417.308 125H415.668L421.808 111.02L427.788 125H426.148ZM419.488 119.84H424.008L421.768 114.5L419.488 119.84ZM429.669 111.66H432.089C433.609 111.66 434.729 111.973 435.449 112.6C436.263 113.293 436.669 114.247 436.669 115.46C436.669 116.5 436.316 117.387 435.609 118.12C434.916 118.84 433.863 119.2 432.449 119.2H431.149V125H429.669V111.66ZM431.149 113.06V117.8H432.369C433.249 117.8 433.936 117.587 434.429 117.16C434.936 116.733 435.189 116.14 435.189 115.38C435.189 113.833 434.209 113.06 432.249 113.06H431.149ZM440.27 111.66V117.08H447.11V111.66H448.59V125H447.11V118.48H440.27V125H438.79V111.66H440.27ZM458.953 111.66V113.06H453.513V117.02H458.793V118.42H453.513V123.6H458.953V125H452.033V111.66H458.953ZM461.681 111.66H463.821C465.261 111.66 466.341 111.907 467.061 112.4C468.034 113.053 468.521 114.04 468.521 115.36C468.521 116.387 468.208 117.24 467.581 117.92C466.968 118.6 466.161 118.973 465.161 119.04L469.401 125H467.601L463.541 119.16H463.161V125H461.681V111.66ZM463.161 113.06V117.84H464.101C465.021 117.84 465.741 117.627 466.261 117.2C466.781 116.773 467.041 116.173 467.041 115.4C467.041 114.493 466.688 113.84 465.981 113.44C465.528 113.187 464.888 113.06 464.061 113.06H463.161Z" fill="black"/>
<path d="M101.054 44.472C110.334 34.552 116.062 28.248 118.238 25.56C118.558 25.176 118.814 24.888 119.006 24.696C120.99 22.52 122.398 22.104 123.23 23.448C123.678 23.832 123.742 24.408 123.422 25.176C123.102 25.88 122.174 27.128 120.638 28.92C118.718 31.096 117.054 33.272 115.646 35.448C114.238 37.56 112.286 40.888 109.79 45.432C108.446 47.736 105.982 52.216 102.397 58.872C98.8775 65.528 95.6135 71.704 92.6055 77.4C89.6615 83.096 88.2215 85.976 88.2855 86.04C88.4135 86.104 89.7575 85.464 92.3175 84.12C94.9415 82.712 98.1095 81.272 101.822 79.8C105.598 78.328 108.734 77.56 111.229 77.496C112.51 77.496 113.278 77.56 113.534 77.688C113.854 77.752 114.046 78.008 114.11 78.456C114.11 78.904 114.014 79.224 113.822 79.416C113.63 79.544 113.15 79.736 112.382 79.992C110.462 80.44 108.478 81.048 106.43 81.816C104.446 82.52 102.59 83.256 100.862 84.024C99.1335 84.792 97.4695 85.592 95.8695 86.424C94.2695 87.192 92.7975 87.96 91.4535 88.728C90.1735 89.496 89.0535 90.168 88.0935 90.744C87.1335 91.32 86.3015 91.832 85.5975 92.28C84.9575 92.728 84.5735 92.984 84.4455 93.048C84.3815 93.176 83.8055 94.2 82.7175 96.12C81.6935 98.104 80.7975 99.768 80.0295 101.112C79.3255 102.52 78.2375 104.6 76.7655 107.352C75.2935 110.104 73.9175 112.6 72.6375 114.84C71.3575 117.08 69.8215 119.736 68.0295 122.808C66.2375 125.88 64.5095 128.728 62.8455 131.352C61.2455 134.04 59.4855 136.856 57.5655 139.8C55.6455 142.744 53.7575 145.496 51.9015 148.056C38.9095 166.232 27.9655 177.496 19.0695 181.848C17.2775 182.68 15.4855 183.192 13.6935 183.384C11.9015 183.64 10.4295 183.48 9.2775 182.904C7.8055 182.264 6.7175 181.048 6.0135 179.256C5.3735 177.528 5.2135 175.544 5.5335 173.304C6.2375 169.528 7.6775 165.528 9.8535 161.304C10.8135 159.256 12.6695 156.184 15.4215 152.088C18.2375 147.992 20.8615 144.44 23.2935 141.432C28.4135 135.096 33.7255 129.144 39.2295 123.576C44.7335 118.072 49.7895 113.432 54.3975 109.656C59.0695 105.88 63.1655 102.68 66.6855 100.056C70.2055 97.496 73.5015 95.224 76.5735 93.24C79.6455 91.32 81.4055 90.2 81.8535 89.88C83.4535 86.68 87.1655 79.48 92.9895 68.28C98.8775 57.016 102.302 50.552 103.262 48.888L104.702 46.008C104.638 45.88 102.526 48.056 98.3655 52.536C94.2695 56.952 87.6135 64.152 78.3975 74.136C75.5815 77.208 73.2775 79.704 71.4855 81.624C69.7575 83.544 66.9095 86.52 62.9415 90.552C59.0375 94.648 55.5815 98.072 52.5735 100.824C49.6295 103.64 46.0775 106.776 41.9175 110.232C37.7575 113.688 34.0455 116.44 30.7815 118.488C27.5815 120.6 24.2535 122.328 20.7975 123.672C17.3415 125.08 14.3015 125.688 11.6775 125.496C10.1415 125.304 8.8615 124.984 7.8375 124.536C6.8775 124.088 5.8855 123.384 4.8615 122.424C2.3655 119.8 0.9575 116.024 0.6375 111.096C0.3175 106.168 1.0535 99.608 2.8455 91.416C6.4295 74.712 12.6375 57.4 21.4695 39.48C26.4615 29.56 31.0055 22.488 35.1015 18.264C39.2615 13.976 42.9095 12.632 46.0455 14.232C47.0695 14.68 47.8055 15.32 48.2535 16.152C48.7655 16.984 48.8295 17.624 48.4455 18.072C48.1255 18.52 47.7095 18.744 47.1975 18.744C46.6855 18.744 46.2375 18.52 45.8535 18.072C45.4695 17.688 44.7655 17.496 43.7415 17.496C42.7815 17.432 41.8855 17.624 41.0535 18.072C40.2215 18.456 38.9735 19.576 37.3095 21.432C34.8135 24.12 32.0935 28.056 29.1495 33.24C26.2055 38.36 23.3575 44.024 20.6055 50.232C17.9175 56.44 15.3575 63 12.9255 69.912C10.5575 76.824 8.6695 83.352 7.2615 89.496C5.9175 95.64 5.0855 101.24 4.7655 106.296C4.3815 111.352 4.8935 115.096 6.3015 117.528C7.7735 120.216 9.7895 121.624 12.3495 121.752C14.9095 121.88 18.6215 120.728 23.4855 118.296C26.3015 116.952 29.1815 115.256 32.1255 113.208C35.1335 111.16 38.3655 108.6 41.8215 105.528C45.2775 102.52 48.5095 99.576 51.5175 96.696C54.5255 93.88 58.2055 90.2 62.5575 85.656C66.9735 81.048 70.7815 77.016 73.9815 73.56C77.2455 70.04 81.6295 65.336 87.1335 59.448C92.6375 53.496 97.2775 48.504 101.054 44.472ZM17.5335 178.296C21.3095 176.632 25.7895 173.144 30.9735 167.832C36.2215 162.52 41.7575 155.864 47.5815 147.864C53.4055 139.864 59.1015 131.128 64.6695 121.656C66.4615 118.584 68.4455 115.096 70.6215 111.192C72.8615 107.288 74.6855 103.96 76.0935 101.208C77.5015 98.52 78.1415 97.144 78.0135 97.08C77.7575 96.824 73.3095 99.896 64.6695 106.296C57.0535 112.056 49.3735 118.872 41.6295 126.744C33.8855 134.616 27.2295 142.392 21.6615 150.072C16.0935 157.752 12.4135 164.216 10.6215 169.464C10.1735 171.128 9.8535 172.856 9.6615 174.648C9.5335 175.928 9.5015 176.792 9.5655 177.24C9.6935 177.688 10.0455 178.168 10.6215 178.68C11.1975 179.192 11.6455 179.48 11.9655 179.544C12.2855 179.672 12.7975 179.672 13.5015 179.544C14.7815 179.416 16.1255 179 17.5335 178.296ZM152.731 28.536C153.627 26.296 154.267 24.92 154.651 24.408C155.035 23.832 155.515 23.48 156.091 23.352C156.859 23.224 157.467 23.544 157.915 24.312C158.107 24.76 158.107 25.368 157.915 26.136C157.723 26.84 157.179 28.44 156.283 30.936C147.835 53.592 140.731 75.768 134.971 97.464C133.627 102.584 132.667 105.24 132.091 105.432C131.771 105.56 131.387 105.336 130.939 104.76C130.683 104.44 131.003 101.912 131.899 97.176C132.859 92.44 134.075 87.352 135.547 81.912C135.675 81.4 135.579 81.272 135.259 81.528C135.003 81.72 134.555 82.136 133.915 82.776C131.995 85.144 130.331 86.328 128.923 86.328C128.667 86.328 128.347 86.232 127.963 86.04C127.579 85.784 127.195 85.496 126.811 85.176C126.427 84.856 126.075 84.472 125.755 84.024C125.499 83.576 125.339 83.16 125.275 82.776L124.891 81.528C124.763 81.656 124.283 82.104 123.451 82.872C122.683 83.576 121.883 84.28 121.051 84.984C120.283 85.688 119.323 86.392 118.171 87.096C117.019 87.864 115.963 88.312 115.003 88.44C114.107 88.632 113.147 88.536 112.123 88.152C111.099 87.64 110.523 86.488 110.395 84.696C110.267 82.84 110.651 80.92 111.547 78.936C112.379 76.888 113.499 76.216 114.907 76.92C115.547 77.24 115.899 77.752 115.963 78.456C116.027 79.096 115.803 79.704 115.291 80.28C114.907 80.664 114.555 81.4 114.235 82.488C113.915 83.576 113.851 84.248 114.043 84.504C114.299 84.888 115.259 84.44 116.923 83.16C118.587 81.816 120.283 80.376 122.011 78.84C123.803 77.24 124.891 76.44 125.275 76.44C126.619 76.44 127.579 77.528 128.155 79.704C128.667 81.304 129.051 82.104 129.307 82.104C130.075 82.296 131.547 80.344 133.723 76.248C135.899 72.152 138.011 67.384 140.059 61.944C141.339 58.36 145.563 47.224 152.731 28.536ZM161.507 80.472C165.539 77.72 167.747 76.952 168.131 78.168C168.195 78.36 168.227 78.616 168.227 78.936C168.227 79.576 167.875 80.184 167.171 80.76C166.467 81.336 164.323 82.776 160.739 85.08C155.107 88.6 150.819 90.84 147.875 91.8C144.931 92.76 142.755 92.632 141.347 91.416C140.515 90.584 140.067 89.72 140.003 88.824C139.875 87.992 140.099 86.808 140.675 85.272C141.443 82.584 142.531 80.408 143.939 78.744C145.283 77.016 146.403 76.408 147.299 76.92C148.323 77.688 148.227 78.808 147.011 80.28C146.307 81.304 145.603 82.648 144.899 84.312C144.131 85.912 143.747 87.096 143.747 87.864C143.747 88.568 144.003 88.952 144.515 89.016C145.027 89.144 146.115 88.888 147.779 88.248C151.171 86.776 155.747 84.184 161.507 80.472ZM149.987 72.888C149.859 72.888 149.507 72.696 148.931 72.312C148.483 71.864 148.323 71.352 148.451 70.776C148.579 70.136 148.963 69.624 149.603 69.24C152.035 68.024 153.731 67.832 154.691 68.664C155.139 69.112 155.043 69.656 154.403 70.296C154.211 70.616 153.795 71 153.155 71.448C152.515 71.832 151.875 72.184 151.235 72.504C150.659 72.76 150.243 72.888 149.987 72.888ZM199.721 78.072C199.977 78.648 199.337 79.576 197.801 80.856C196.329 82.136 194.601 83.224 192.617 84.12C191.209 84.888 189.609 85.496 187.817 85.944C186.089 86.392 184.937 86.52 184.361 86.328C184.233 86.328 183.945 86.296 183.497 86.232C183.113 86.104 182.825 86.008 182.633 85.944C182.505 85.88 182.249 85.784 181.865 85.656C181.481 85.464 181.065 85.24 180.617 84.984C180.233 84.664 179.753 84.28 179.177 83.832C179.113 83.704 178.985 83.576 178.793 83.448C177.769 82.552 176.873 82.168 176.105 82.296C175.401 82.36 173.353 83.192 169.961 84.792C169.641 84.92 169.385 85.016 169.193 85.08C166.825 86.168 165.128 86.808 164.104 87C163.08 87.128 162.152 86.84 161.32 86.136C160.552 85.368 160.456 84.408 161.032 83.256C161.608 82.04 162.984 80.376 165.16 78.264C170.025 73.784 173.353 72.568 175.145 74.616C175.721 75.128 175.849 75.64 175.529 76.152C175.209 76.6 174.537 76.952 173.513 77.208C172.937 77.272 172.265 77.496 171.497 77.88C170.793 78.264 170.089 78.744 169.385 79.32C168.681 79.832 168.073 80.344 167.561 80.856C167.177 81.368 167.049 81.624 167.177 81.624C167.369 81.56 168.873 80.92 171.689 79.704C174.121 78.616 175.785 78.104 176.681 78.168C177.641 78.232 178.857 78.872 180.329 80.088C182.121 81.752 183.753 82.584 185.225 82.584C186.761 82.52 189.385 81.56 193.097 79.704C195.721 78.424 197.417 77.688 198.185 77.496C199.017 77.304 199.529 77.496 199.721 78.072ZM190.708 146.712C180.532 159.192 174.292 166.328 171.988 168.12C169.684 169.784 168.212 169.784 167.573 168.12C167.444 167.928 167.38 167.736 167.38 167.544C167.38 167.352 167.444 167.064 167.573 166.68C167.636 166.36 167.796 166.008 168.052 165.624C168.244 165.24 168.564 164.664 169.012 163.896C169.396 163.192 169.876 162.424 170.452 161.592C170.964 160.824 171.668 159.8 172.564 158.52C173.396 157.304 174.292 155.992 175.252 154.584C176.212 153.24 177.396 151.608 178.804 149.688C183.22 143.544 188.596 135.864 194.932 126.648C201.204 117.496 206.58 109.592 211.06 102.936C215.476 96.28 217.588 92.952 217.396 92.952C216.628 92.952 214.996 93.208 212.5 93.72C210.004 94.232 207.444 94.776 204.82 95.352C202.196 95.992 199.508 96.632 196.756 97.272C193.94 97.976 192.02 98.424 190.996 98.616C189.268 98.936 188.148 99.096 187.636 99.096C187.06 99.096 186.516 98.936 186.004 98.616C185.172 98.04 184.852 97.336 185.044 96.504C185.172 95.736 185.748 95.192 186.772 94.872C187.412 94.616 189.236 94.168 192.244 93.528C195.252 92.952 198.964 92.248 203.38 91.416C207.796 90.584 211.38 89.816 214.132 89.112L221.332 87.48C221.652 86.968 223.221 84.824 226.037 81.048C228.853 77.208 232.053 73.016 235.637 68.472C239.285 63.864 241.653 61.272 242.741 60.696C243.317 60.312 243.893 60.28 244.469 60.6C245.109 60.92 245.429 61.4 245.429 62.04C245.429 62.616 245.173 63.288 244.661 64.056C244.213 64.76 243.797 65.112 243.413 65.112C242.901 65.112 239.989 68.536 234.677 75.384C229.429 82.168 226.805 85.72 226.805 86.04C226.805 86.04 227.029 86.008 227.477 85.944C227.925 85.88 228.501 85.784 229.205 85.656C229.973 85.464 230.773 85.304 231.605 85.176C232.501 84.984 233.397 84.792 234.293 84.6C235.253 84.408 236.117 84.248 236.885 84.12C237.717 83.928 238.421 83.768 238.997 83.64C239.573 83.512 239.957 83.448 240.149 83.448C241.941 81.592 243.413 80.056 244.565 78.84C245.781 77.56 246.901 76.376 247.925 75.288C249.013 74.136 252.181 70.936 257.429 65.688C262.677 60.376 270.165 52.888 279.893 43.224C295.637 27.416 304.501 18.744 306.485 17.208C307.829 16.248 308.565 16.184 308.693 17.016C308.757 17.144 308.789 17.304 308.789 17.496C308.917 17.944 308.533 18.904 307.637 20.376C306.805 21.784 304.981 24.568 302.165 28.728C299.669 32.504 297.205 36.312 294.773 40.152C292.341 43.992 290.197 47.48 288.341 50.616C286.485 53.752 284.725 56.792 283.061 59.736C281.397 62.68 279.989 65.24 278.837 67.416C277.685 69.592 276.693 71.512 275.861 73.176C275.029 74.84 274.389 76.088 273.941 76.92C273.557 77.752 273.365 78.168 273.365 78.168C273.365 78.232 274.165 78.168 275.765 77.976C277.429 77.784 279.317 77.592 281.429 77.4C283.541 77.144 285.077 77.08 286.037 77.208C287.317 77.208 287.957 77.752 287.957 78.84C288.021 79.864 287.477 80.504 286.325 80.76L285.653 80.856C283.093 80.664 278.805 81.08 272.789 82.104C271.765 82.296 271.093 82.552 270.773 82.872C270.517 83.128 270.037 84.12 269.333 85.848C268.629 87.448 268.245 88.408 268.181 88.728C268.117 89.112 268.245 89.368 268.565 89.496C268.629 89.496 268.853 89.56 269.237 89.688C269.685 89.88 270.229 90.072 270.869 90.264C271.509 90.52 272.085 90.744 272.597 90.936C276.949 92.408 280.533 94.616 283.349 97.56C286.229 100.568 288.213 104.088 289.301 108.12C289.941 111.128 290.037 114.68 289.589 118.776C289.205 122.936 288.213 127.384 286.613 132.12C285.077 136.856 283.285 141.592 281.237 146.328C279.189 151.064 276.821 155.544 274.133 159.768C271.509 163.992 268.917 167.608 266.357 170.616C263.797 173.688 261.205 175.896 258.581 177.24C255.957 178.648 253.621 178.872 251.573 177.912C249.013 176.76 247.157 173.56 246.005 168.312C245.557 165.88 245.397 162.264 245.525 157.464C245.653 152.664 246.005 148.472 246.581 144.888C247.925 137.08 249.973 128.792 252.725 120.024C255.477 111.256 257.813 104.44 259.733 99.576C261.653 94.776 262.581 92.344 262.517 92.28C262.261 92.024 261.365 91.8 259.829 91.608C258.357 91.416 256.501 91.256 254.261 91.128C252.085 91.064 249.973 91 247.925 90.936C245.877 90.872 243.861 90.808 241.877 90.744C239.957 90.68 238.837 90.648 238.517 90.648C238.005 91.224 235.349 94.168 230.549 99.48C225.813 104.856 220.309 111.224 214.036 118.584C207.764 126.008 199.988 135.384 190.708 146.712ZM286.229 110.52C285.717 107.512 284.501 104.696 282.581 102.072C280.725 99.512 278.453 97.528 275.765 96.12C274.293 95.416 272.405 94.68 270.101 93.912C267.797 93.144 266.549 92.824 266.357 92.952C266.229 93.208 265.589 94.776 264.437 97.656C263.349 100.6 262.133 103.992 260.789 107.832C259.445 111.672 258.485 114.648 257.909 116.76C252.853 132.184 250.133 145.208 249.749 155.832C249.365 165.368 250.293 171.32 252.533 173.688C253.045 174.264 253.877 174.52 255.029 174.456C256.181 174.392 257.237 174.008 258.197 173.304C262.613 170.36 267.189 164.888 271.925 156.888C276.725 148.952 280.501 140.536 283.253 131.64C286.069 122.808 287.061 115.768 286.229 110.52ZM293.333 34.68L285.173 42.456C281.717 45.848 274.357 53.336 263.093 64.92C251.829 76.504 246.389 82.232 246.773 82.104C247.157 82.04 252.757 81.112 263.573 79.32C263.957 79.256 264.341 79.224 264.725 79.224C265.109 79.16 265.429 79.096 265.685 79.032C266.005 78.968 266.293 78.936 266.549 78.936C266.869 78.872 267.125 78.84 267.317 78.84C267.573 78.776 267.797 78.744 267.989 78.744C268.181 78.68 268.309 78.648 268.373 78.648C268.501 78.648 268.565 78.648 268.565 78.648C268.565 78.648 269.493 76.92 271.349 73.464C273.653 68.792 276.117 64.056 278.741 59.256C281.429 54.392 283.669 50.456 285.461 47.448C287.317 44.44 289.045 41.624 290.645 39C292.309 36.376 293.205 34.936 293.333 34.68ZM265.397 86.04L266.549 83.064C266.357 82.872 262.325 83.448 254.453 84.792C246.645 86.072 242.677 86.84 242.549 87.096C242.485 87.096 242.709 87.096 243.221 87.096C243.797 87.16 244.565 87.224 245.525 87.288C246.485 87.352 247.573 87.384 248.789 87.384C250.005 87.448 251.253 87.512 252.533 87.576C253.813 87.64 255.029 87.704 256.181 87.768C257.333 87.832 258.357 87.896 259.253 87.96C260.213 88.024 260.917 88.088 261.365 88.152C262.581 88.472 263.381 88.632 263.765 88.632C263.829 88.632 263.925 88.504 264.053 88.248C264.245 88.056 264.437 87.768 264.629 87.384C264.885 87 265.141 86.552 265.397 86.04ZM233.141 91.224C231.989 91.352 230.773 91.48 229.493 91.608C228.277 91.8 227.317 91.928 226.613 91.992C225.909 92.12 225.205 92.216 224.501 92.28C223.861 92.344 223.349 92.408 222.965 92.472C222.645 92.6 222.389 92.696 222.197 92.76C222.133 92.824 221.396 93.88 219.988 95.928C218.516 98.04 216.66 100.728 214.42 103.992C212.116 107.32 209.62 110.968 206.932 114.936C204.18 118.904 201.46 122.872 198.772 126.84C196.084 130.808 193.62 134.424 191.38 137.688C189.14 140.952 187.316 143.608 185.908 145.656C184.5 147.704 183.796 148.728 183.796 148.728C184.052 148.728 187.796 144.312 195.028 135.48C201.748 127.352 208.276 119.576 214.612 112.152C220.948 104.792 225.493 99.544 228.245 96.408C231.061 93.336 232.693 91.608 233.141 91.224ZM313.277 78.264C313.981 79.736 312.669 81.656 309.341 84.024C306.077 86.328 302.205 88.056 297.725 89.208C296.189 89.528 294.909 89.624 293.885 89.496C292.925 89.368 292.061 88.888 291.293 88.056L290.237 86.904L289.085 88.248C288.509 88.888 287.741 89.752 286.781 90.84C285.885 91.992 285.117 92.92 284.477 93.624C283.837 94.392 283.197 95.128 282.557 95.832C281.853 96.6 281.277 97.112 280.829 97.368C280.317 97.688 279.933 97.752 279.677 97.56C279.037 96.984 279.101 95.736 279.869 93.816C280.637 91.896 283.069 86.616 287.165 77.976C291.133 69.592 294.557 62.296 297.437 56.088C305.181 39.384 309.405 30.648 310.109 29.88C311.133 28.792 312.061 28.728 312.893 29.688C312.893 29.752 312.957 29.816 313.085 29.88C313.405 30.072 312.669 32.152 310.877 36.12C309.149 40.024 302.749 53.688 291.677 77.112C290.333 79.992 289.277 82.232 288.509 83.832L291.101 80.952C293.149 78.904 295.229 77.24 297.341 75.96C299.517 74.616 301.085 74.072 302.045 74.328C303.389 74.84 303.837 75.704 303.389 76.92C302.941 78.136 301.725 79.48 299.741 80.952C296.157 83.512 294.365 85.08 294.365 85.656C294.365 85.848 294.621 85.944 295.133 85.944C295.645 85.944 296.317 85.88 297.149 85.752C298.045 85.56 298.909 85.272 299.741 84.888C303.581 83.416 306.813 81.624 309.437 79.512C310.781 78.424 311.677 77.816 312.125 77.688C312.573 77.496 312.957 77.688 313.277 78.264ZM345.879 77.496C346.583 77.24 347.191 77.304 347.703 77.688C348.215 78.008 348.375 78.424 348.183 78.936C348.055 79.192 344.951 81.528 338.871 85.944C332.791 90.296 329.399 93.144 328.695 94.488C328.503 94.872 327.831 96.248 326.679 98.616C325.591 100.984 324.535 103.064 323.511 104.856C322.551 106.712 321.271 108.984 319.671 111.672C318.135 114.36 316.311 117.048 314.199 119.736C312.151 122.424 309.943 124.952 307.575 127.32C304.439 130.52 302.103 132.504 300.567 133.272C299.031 134.104 297.783 134.04 296.823 133.08C296.375 132.312 296.151 131.544 296.151 130.776C296.151 130.008 296.727 128.408 297.879 125.976C299.031 123.608 300.247 121.464 301.527 119.544C303.831 116.088 307.735 111.096 313.239 104.568C318.743 98.104 322.199 94.36 323.607 93.336C324.119 92.952 324.887 92.28 325.911 91.32C326.103 90.744 326.423 89.688 326.871 88.152C327.319 86.616 327.703 85.048 328.023 83.448C328.407 81.848 328.599 80.792 328.599 80.28C328.599 79.64 328.535 79.288 328.407 79.224C328.279 79.16 327.863 79.256 327.159 79.512C326.711 79.768 324.375 81.24 320.151 83.928C316.375 86.488 313.527 88.056 311.607 88.632C309.687 89.272 308.247 89.08 307.287 88.056C305.751 86.52 305.687 84.536 307.095 82.104C308.503 79.672 310.871 77.592 314.199 75.864C315.735 75.032 317.079 74.584 318.231 74.52C319.447 74.392 320.311 74.52 320.823 74.904C321.335 75.224 321.879 75.64 322.455 76.152C323.031 76.664 323.415 76.984 323.607 77.112C323.735 77.112 324.183 76.952 324.951 76.632C325.719 76.248 326.455 75.928 327.159 75.672C327.927 75.416 328.759 75.352 329.655 75.48C330.551 75.608 331.223 76.056 331.671 76.824C332.183 77.528 332.407 78.296 332.343 79.128C332.343 79.96 331.895 82.616 330.999 87.096L333.879 85.08C335.671 83.672 337.911 82.136 340.599 80.472C343.287 78.808 345.047 77.816 345.879 77.496ZM311.895 84.504C312.983 84.056 314.583 83.096 316.695 81.624C318.871 80.152 319.959 79.256 319.959 78.936C319.959 78.488 319.543 78.232 318.711 78.168C317.879 78.104 317.047 78.264 316.215 78.648C314.807 79.16 313.015 80.536 310.839 82.776C309.431 84.312 309.143 85.048 309.975 84.984C310.359 84.984 310.999 84.824 311.895 84.504ZM313.143 114.648C314.423 112.792 315.703 110.84 316.983 108.792C318.327 106.744 319.383 104.984 320.151 103.512C320.983 102.04 321.367 101.24 321.303 101.112C321.111 100.92 319.447 102.648 316.311 106.296C313.175 110.008 309.943 114.136 306.615 118.68C303.287 123.224 301.335 126.36 300.759 128.088C300.439 129.112 302.199 127.512 306.039 123.288C309.111 119.896 311.479 117.016 313.143 114.648ZM386.731 28.536C387.627 26.296 388.267 24.92 388.651 24.408C389.035 23.832 389.515 23.48 390.091 23.352C390.859 23.224 391.467 23.544 391.915 24.312C392.107 24.76 392.107 25.368 391.915 26.136C391.723 26.84 391.179 28.44 390.283 30.936C381.835 53.592 374.731 75.768 368.971 97.464C367.627 102.584 366.667 105.24 366.091 105.432C365.771 105.56 365.387 105.336 364.939 104.76C364.683 104.44 365.003 101.912 365.899 97.176C366.859 92.44 368.075 87.352 369.547 81.912C369.675 81.4 369.579 81.272 369.259 81.528C369.003 81.72 368.555 82.136 367.915 82.776C365.995 85.144 364.331 86.328 362.923 86.328C362.667 86.328 362.347 86.232 361.963 86.04C361.579 85.784 361.195 85.496 360.811 85.176C360.427 84.856 360.075 84.472 359.755 84.024C359.499 83.576 359.339 83.16 359.275 82.776L358.891 81.528C358.763 81.656 358.283 82.104 357.451 82.872C356.683 83.576 355.883 84.28 355.051 84.984C354.283 85.688 353.323 86.392 352.171 87.096C351.019 87.864 349.963 88.312 349.003 88.44C348.107 88.632 347.147 88.536 346.123 88.152C345.099 87.64 344.523 86.488 344.395 84.696C344.267 82.84 344.651 80.92 345.547 78.936C346.379 76.888 347.499 76.216 348.907 76.92C349.547 77.24 349.899 77.752 349.963 78.456C350.027 79.096 349.803 79.704 349.291 80.28C348.907 80.664 348.555 81.4 348.235 82.488C347.915 83.576 347.851 84.248 348.043 84.504C348.299 84.888 349.259 84.44 350.923 83.16C352.587 81.816 354.283 80.376 356.011 78.84C357.803 77.24 358.891 76.44 359.275 76.44C360.619 76.44 361.579 77.528 362.155 79.704C362.667 81.304 363.051 82.104 363.307 82.104C364.075 82.296 365.547 80.344 367.723 76.248C369.899 72.152 372.011 67.384 374.059 61.944C375.339 58.36 379.563 47.224 386.731 28.536ZM429.971 52.536C428.691 52.984 422.707 53.624 412.019 54.456C401.331 55.224 395.827 55.672 395.507 55.8C394.931 55.992 393.811 57.624 392.147 60.696C390.547 63.704 388.915 67.16 387.251 71.064C385.651 74.968 384.595 78.04 384.083 80.28C382.675 85.272 382.451 88.088 383.411 88.728C384.435 89.432 387.859 88.088 393.683 84.696C394.579 84.248 395.603 83.672 396.755 82.968C402.323 79.576 405.747 77.304 407.027 76.152C408.627 74.808 409.843 73.976 410.675 73.656C411.571 73.272 412.339 73.304 412.979 73.752C413.619 74.136 413.939 74.68 413.939 75.384C413.939 76.024 414.099 76.536 414.419 76.92C414.739 77.176 414.739 78.456 414.419 80.76C413.523 86.2 413.651 89.848 414.803 91.704C415.571 92.6 415.827 93.272 415.571 93.72C415.443 94.168 414.963 94.328 414.131 94.2C413.363 94.136 412.691 93.784 412.115 93.144C411.411 92.376 410.931 91.352 410.675 90.072C410.419 88.792 410.291 87.704 410.291 86.808C410.291 85.848 410.259 85.368 410.195 85.368C410.067 85.368 409.459 85.944 408.371 87.096C407.411 87.992 406.323 88.76 405.107 89.4C403.955 90.04 402.963 90.36 402.131 90.36C401.427 90.36 400.691 89.976 399.923 89.208C399.219 88.44 398.899 87.736 398.963 87.096V85.944L396.755 87.192C395.923 87.704 394.899 88.28 393.683 88.92C392.467 89.56 391.283 90.136 390.131 90.648C389.043 91.224 388.019 91.704 387.059 92.088C386.099 92.472 385.395 92.696 384.947 92.76C383.731 92.952 382.579 92.792 381.491 92.28C380.467 91.832 379.763 91.128 379.379 90.168C378.931 89.208 378.771 87.96 378.899 86.424C378.963 84.888 379.187 83.32 379.571 81.72C379.891 80.12 380.403 78.36 381.107 76.44C381.811 74.52 382.515 72.696 383.219 70.968C383.923 69.24 384.659 67.512 385.427 65.784C386.259 64.056 386.995 62.584 387.635 61.368C388.275 60.152 388.851 59.064 389.363 58.104C389.875 57.08 390.163 56.44 390.227 56.184C390.675 56.12 387.187 56.184 379.763 56.376C379.315 56.376 379.059 56.376 378.995 56.376L378.803 55.224C378.739 54.456 379.219 53.912 380.243 53.592C381.203 53.208 383.443 52.856 386.963 52.536L392.723 51.96L396.179 46.008C400.531 39.032 404.659 32.856 408.563 27.48C412.531 22.04 415.123 19 416.339 18.36C416.851 18.104 417.331 18.136 417.779 18.456C418.291 18.712 418.547 19.128 418.547 19.704C418.547 19.96 417.075 22.168 414.131 26.328C410.867 30.68 407.219 35.96 403.187 42.168C399.155 48.312 397.267 51.512 397.523 51.768C397.587 51.832 399.379 51.768 402.899 51.576C406.483 51.384 410.611 51.16 415.283 50.904C420.019 50.648 423.379 50.52 425.363 50.52C427.731 50.392 429.171 50.36 429.683 50.424C430.195 50.488 430.483 50.744 430.547 51.192C430.739 51.768 430.547 52.216 429.971 52.536ZM408.947 79.704C408.691 79.704 407.987 80.28 406.835 81.432C405.747 82.52 404.851 83.512 404.147 84.408C403.443 85.496 403.283 85.976 403.667 85.848C404.243 85.72 405.267 84.824 406.739 83.16C408.531 80.984 409.267 79.832 408.947 79.704ZM443.136 79.704C447.04 77.784 449.152 77.176 449.472 77.88C449.536 78.008 449.568 78.168 449.568 78.36C449.568 79.768 447.424 81.56 443.136 83.736C441.536 84.504 440.128 85.08 438.912 85.464C437.76 85.784 436.832 85.912 436.128 85.848C435.424 85.72 434.816 85.528 434.304 85.272C433.792 84.952 433.376 84.6 433.056 84.216C432.736 83.768 432.448 83.352 432.192 82.968C432 82.52 431.744 82.168 431.424 81.912C431.104 81.656 430.752 81.528 430.368 81.528C429.344 81.528 427.968 82.008 426.24 82.968C424.576 83.928 423.104 85.112 421.824 86.52C420.544 87.928 419.648 88.728 419.136 88.92C418.624 89.176 418.112 89.048 417.6 88.536C417.216 88.088 417.12 87.416 417.312 86.52C417.504 85.624 418.112 84.024 419.136 81.72C419.968 79.544 420.576 78.168 420.96 77.592C421.344 76.952 421.888 76.632 422.592 76.632C423.104 76.632 423.424 76.76 423.552 77.016C423.744 77.272 423.808 77.656 423.744 78.168C423.744 78.68 423.776 79.288 423.84 79.992L425.856 78.936C430.4 76.76 433.568 77.304 435.36 80.568C435.872 81.72 436.512 82.264 437.28 82.2C438.048 82.072 440 81.24 443.136 79.704Z" fill="black"/>
</svg>
